<svg width="99" height="60" viewBox="0 0 99 60" fill="none" xmlns="http://www.w3.org/2000/svg">
<path d="M17.4498 44.1741L2.30128 35.4006C1.67731 35.039 1.29297 34.3724 1.29297 33.6513V15.3904L17.4498 0.453694V44.1741Z" fill="#5F8A6C"/>
<path opacity="0.8" d="M30.4216 60C18.7871 58.0405 19.5181 45.0984 19.5268 44.968L19.5262 44.7962L18.1257 43.9854L33.1373 35.5151C33.6825 35.2077 34.0197 34.6304 34.0197 34.0046V15.5913L17.9961 1.15999L19.0312 2.0374L19.8611 1.26992L36.4311 16.2073V34.1423C36.4311 35.0632 35.935 35.9128 35.133 36.3658L20.1965 44.8009V44.9903C20.1936 45.0439 20.002 48.188 21.1907 51.5133C22.7687 55.9277 25.9123 58.5608 30.5328 59.3389L30.4216 60Z" fill="#C2C3C1"/>
<path d="M17.4355 44.1741V44.1657L17.4429 44.1699L17.4355 44.1741ZM17.45 44.166V0.467105L17.9964 0.959094L17.6565 0.670875L17.45 0.898095V43.3928L18.126 43.7845L17.45 44.166ZM17.4355 0.467105V0.453694L17.4429 0.460403L17.4355 0.467105Z" fill="#5F8A6C"/>
<path d="M17.4429 44.1699L17.4355 44.1657V0.467107L17.4429 0.460405L17.45 0.467107V44.166L17.4429 44.1699Z" fill="#274730"/>
<path d="M18.1253 43.7844L17.4492 43.3927V0.898015L17.6558 0.670795L17.9956 0.959014L34.0192 15.3903V33.8036C34.0192 34.4294 33.682 35.0067 33.1369 35.3141L18.1253 43.7844Z" fill="#4A6B56"/>
<path opacity="0.8" d="M17.449 0.453698L17.2215 0.207707L0.957031 15.2443V33.2243C0.957031 34.3295 1.54561 35.3506 2.50211 35.9047L17.4469 44.5603L32.8858 35.8413C33.7931 35.3289 34.3542 34.368 34.3542 33.3259V15.2416L17.4461 -8.10238e-05L17.2215 0.207707L17.449 0.453698L17.2246 0.703051L33.6839 15.5399V33.3259C33.6839 34.1261 33.2529 34.8644 32.5562 35.2577L17.4511 43.7879L2.838 35.3245C2.08868 34.8906 1.62732 34.0902 1.62732 33.2243V15.5372L17.6765 0.699696L17.449 0.453698Z" fill="white"/>
<path opacity="0.8" d="M1.2207 15.5425L17.4477 23.1628L34.0884 15.5432L33.9489 15.2382L17.4496 22.7934L1.36314 15.2389L1.2207 15.5425Z" fill="white"/>
<path opacity="0.8" d="M17.114 0.453688V44.1741H17.4492L17.1148 44.1515C17.1143 44.1584 17.0996 44.3796 17.0996 44.765C17.1009 46.0593 17.2609 49.2026 18.7028 52.2707C20.1382 55.3375 22.9065 58.3305 28.0096 59.1838L28.1209 58.5227C23.2403 57.6945 20.6932 54.9091 19.3095 51.9853C17.932 49.0622 17.7686 46.0024 17.7699 44.765C17.7699 44.5809 17.7733 44.4372 17.7767 44.3401C17.7804 44.2432 17.7835 44.1966 17.7835 44.1963L17.7843 44.1853V22.9783V0.453688H17.114Z" fill="white"/>
<path opacity="0.8" d="M22.6779 11.4599L17.3125 13.9795L17.4549 14.2825L22.8203 11.7629" fill="white"/>
<path opacity="0.8" d="M17.4607 33.19L10.2341 29.5043L10.082 29.803L17.3083 33.4885" fill="white"/>
<path d="M45.7742 25.7254C45.9287 25.6036 46.0828 25.6036 46.2373 25.7254L46.3465 25.822L46.3591 27.4412L46.3705 29.073L46.5901 29.0482C47.2712 28.9676 47.8759 28.9138 48.4028 28.8898C48.7031 28.8739 48.8941 28.8856 48.9751 28.9264C49.081 28.9751 49.144 29.0524 49.1641 29.1578C49.1839 29.2632 49.1578 29.364 49.0852 29.4618C49.06 29.4942 48.9877 29.5211 48.866 29.5403C48.7442 29.5609 48.4112 29.592 47.8675 29.6319C47.1212 29.6974 46.6551 29.7414 46.4683 29.7663L46.3222 29.791L46.3339 30.8613C46.3423 31.3485 46.3549 31.6731 46.3705 31.8356C46.3872 31.9977 46.4158 32.1808 46.4557 32.3828C46.5615 32.8299 46.7076 33.2234 46.8945 33.5639C46.9512 33.6693 47.0478 33.8133 47.1864 33.9952C47.3237 34.1779 47.4299 34.3026 47.5021 34.3673C47.649 34.5045 47.6889 34.6553 47.6239 34.8174C47.5672 34.9392 47.4496 35 47.2712 35C47.1906 35 47.0884 34.9345 46.9668 34.8048C46.399 34.1963 46.0177 33.5027 45.8224 32.7233C45.7007 32.2698 45.6411 31.6365 45.6411 30.8248V29.8758L45.2387 29.8511C44.9629 29.8351 44.7803 29.807 44.6908 29.7663C44.5774 29.7092 44.506 29.6286 44.4779 29.5231C44.4494 29.4178 44.4758 29.3198 44.5576 29.2308L44.734 29.1343C44.8021 29.1255 44.9869 29.1343 45.2871 29.1578L45.6411 29.1943L45.6524 27.502L45.665 25.822L45.7742 25.7254Z" fill="white"/>
<path d="M50.9108 28.1833C50.9591 28.1102 51.041 28.0737 51.1544 28.0737C51.3483 28.0737 51.4617 28.1514 51.4945 28.3051C51.5113 28.4029 51.5553 28.8652 51.6289 29.6929C51.6611 30.0011 51.6855 30.1636 51.7023 30.1795L51.7443 30.1678L51.7989 30.0817C51.9291 29.8226 52.123 29.5468 52.3834 29.2554C52.8705 28.6952 53.3451 28.3479 53.8069 28.2148C54.2701 28.0804 54.6677 28.1716 55.0008 28.4877C55.1948 28.6662 55.3186 28.8426 55.3711 29.0177C55.4235 29.1919 55.3933 29.3195 55.28 29.4014C55.0616 29.5627 54.8496 29.4733 54.6468 29.134C54.5179 28.9135 54.3549 28.8165 54.1609 28.8413C53.8523 28.8736 53.4954 29.1003 53.0889 29.5228C52.8537 29.7583 52.6513 30.0175 52.4812 30.3013C52.2701 30.6259 52.123 31.0236 52.0424 31.4943C51.9614 31.9655 51.9291 32.6105 51.9446 33.4293L51.9572 34.3539L51.8481 34.4518C51.7023 34.5743 51.5478 34.5743 51.3853 34.4518L51.2875 34.3304C51.2719 34.2893 51.2551 34.2002 51.2392 34.0625C51.2223 33.8432 51.2152 33.5346 51.2152 33.1383C51.2152 32.521 51.1417 31.5879 50.9956 30.3379C50.8982 29.4296 50.8458 28.864 50.8373 28.6401C50.8297 28.4168 50.8541 28.2652 50.9108 28.1833Z" fill="white"/>
<path d="M59.7588 28.5128C59.7265 28.4721 59.653 28.4514 59.5395 28.4514C59.3115 28.4514 59.0722 28.59 58.8216 28.8655C58.6262 29.0683 58.4339 29.3631 58.2429 29.7477C58.0531 30.1336 57.9166 30.4842 57.8356 30.8005C57.7949 30.9637 57.7823 31.0529 57.799 31.0692C57.8146 31.0851 57.9145 31.0646 58.0971 31.0079C58.2799 30.9507 58.4235 30.8937 58.5297 30.837C58.6346 30.7807 58.7586 30.6875 58.9 30.5573C59.042 30.4284 59.1134 30.3423 59.1134 30.3016L59.1499 30.2293C59.1659 30.2293 59.2213 30.1479 59.3137 29.9854C59.4073 29.8229 59.4829 29.6814 59.5395 29.5596C59.653 29.3156 59.7307 29.0944 59.7706 28.8953C59.8113 28.6975 59.8071 28.5699 59.7588 28.5128ZM59.3443 27.7582C59.4829 27.7334 59.6488 27.7473 59.844 27.8011C60.038 27.8539 60.1799 27.9278 60.2702 28.0256C60.3341 28.0987 60.3878 28.1945 60.4277 28.3117C60.4684 28.43 60.4844 28.59 60.4768 28.792C60.4684 28.9952 60.4319 29.1854 60.3668 29.364C60.3186 29.5189 60.2375 29.7112 60.1233 29.9425C60.0098 30.1735 59.9162 30.3498 59.844 30.4725L59.7768 30.5636L59.7096 30.6606L59.6739 30.7152C59.6412 30.7807 59.5353 30.8937 59.3569 31.0562C59.1625 31.2594 58.9202 31.4282 58.6326 31.5613C58.3449 31.6957 58.0792 31.7625 57.8356 31.7625H57.6773L57.653 31.9451C57.629 32.0505 57.629 32.2491 57.653 32.5405C57.6928 32.963 57.7949 33.2738 57.9574 33.4727C58.1191 33.6714 58.3542 33.7822 58.6628 33.8071C59.3044 33.8566 59.9658 33.3652 60.6469 32.3343C60.8338 32.0589 60.9535 31.8721 61.0059 31.7742C61.0584 31.6772 61.1214 31.5357 61.1949 31.3485C61.2515 31.1948 61.3062 31.0906 61.3586 31.0377C61.4112 30.9852 61.4909 30.9591 61.5959 30.9591C61.6938 30.9591 61.7744 30.9936 61.8395 31.0624C61.9045 31.1313 61.9289 31.2153 61.913 31.3119C61.8722 31.6365 61.6526 32.0904 61.2557 32.6749C61.0449 32.9835 60.9316 33.1456 60.9148 33.1621L60.8665 33.2469C60.8665 33.2716 60.7519 33.3951 60.5251 33.6176C60.2984 33.8415 60.1316 33.9939 60.0267 34.0745C59.7336 34.2853 59.4052 34.4239 59.0408 34.4885C58.8454 34.5292 58.6473 34.5292 58.4445 34.4885C57.9901 34.3915 57.6446 34.1963 57.4094 33.9049C57.3443 33.8318 57.273 33.7058 57.1965 33.5274C57.1197 33.3489 57.0609 33.1868 57.0201 33.0407C56.9391 32.7072 56.9201 32.2882 56.9655 31.7805C57.0096 31.2732 57.1091 30.7853 57.2637 30.3141C57.3287 30.1026 57.4274 29.8531 57.5618 29.5651C57.6949 29.277 57.8116 29.0607 57.9083 28.9138C58.0057 28.7849 58.0552 28.7113 58.0552 28.6954C58.0552 28.6706 58.1253 28.5858 58.2673 28.4397C58.4101 28.2936 58.5326 28.1793 58.6389 28.0987C58.7124 28.0344 58.8236 27.9656 58.9736 27.8912C59.1238 27.8183 59.2478 27.7742 59.3443 27.7582Z" fill="white"/>
<path d="M66.2822 28.5128C66.2498 28.4721 66.1764 28.4514 66.063 28.4514C65.835 28.4514 65.5956 28.59 65.3449 28.8655C65.1497 29.0683 64.9574 29.3631 64.7663 29.7477C64.5765 30.1336 64.44 30.4842 64.3589 30.8005C64.3183 30.9637 64.3056 31.0529 64.3225 31.0692C64.338 31.0851 64.4379 31.0646 64.6206 31.0079C64.8032 30.9507 64.9468 30.8937 65.0531 30.837C65.1581 30.7807 65.2819 30.6875 65.4235 30.5573C65.5654 30.4284 65.6367 30.3423 65.6367 30.3016L65.6733 30.2293C65.6892 30.2293 65.7447 30.1479 65.837 29.9854C65.9308 29.8229 66.0063 29.6814 66.063 29.5596C66.1764 29.3156 66.254 29.0944 66.2939 28.8953C66.3346 28.6975 66.3304 28.5699 66.2822 28.5128ZM65.8678 27.7582C66.0063 27.7334 66.1722 27.7473 66.3674 27.8011C66.5614 27.8539 66.7033 27.9278 66.7936 28.0256C66.8575 28.0987 66.9112 28.1945 66.9511 28.3117C66.9919 28.43 67.0078 28.59 67.0003 28.792C66.9919 28.9952 66.9553 29.1854 66.8902 29.364C66.8419 29.5189 66.7609 29.7112 66.6467 29.9425C66.5333 30.1735 66.4396 30.3498 66.3674 30.4725L66.3002 30.5636L66.233 30.6606L66.1973 30.7152C66.1646 30.7807 66.0588 30.8937 65.8803 31.0562C65.6859 31.2594 65.4436 31.4282 65.156 31.5613C64.8684 31.6957 64.6025 31.7625 64.3589 31.7625H64.2007L64.1763 31.9451C64.1524 32.0505 64.1524 32.2491 64.1763 32.5405C64.2162 32.963 64.3183 33.2738 64.4807 33.4727C64.6424 33.6714 64.8776 33.7822 65.1862 33.8071C65.8279 33.8566 66.4892 33.3652 67.1703 32.3343C67.3571 32.0589 67.4768 31.8721 67.5294 31.7742C67.5818 31.6772 67.6448 31.5357 67.7182 31.3485C67.775 31.1948 67.8296 31.0906 67.8821 31.0377C67.9345 30.9852 68.0143 30.9591 68.1193 30.9591C68.2171 30.9591 68.2977 30.9936 68.3629 31.0624C68.4279 31.1313 68.4523 31.2153 68.4363 31.3119C68.3956 31.6365 68.176 32.0904 67.7792 32.6749C67.5684 32.9835 67.455 33.1456 67.4382 33.1621L67.3899 33.2469C67.3899 33.2716 67.2752 33.3951 67.0485 33.6176C66.8218 33.8415 66.6551 33.9939 66.55 34.0745C66.257 34.2853 65.9286 34.4239 65.5641 34.4885C65.3689 34.5292 65.1706 34.5292 64.9679 34.4885C64.5135 34.3915 64.1679 34.1963 63.9328 33.9049C63.8677 33.8318 63.7963 33.7058 63.7198 33.5274C63.643 33.3489 63.5842 33.1868 63.5436 33.0407C63.4625 32.7072 63.4436 32.2882 63.4889 31.7805C63.533 31.2732 63.6326 30.7853 63.787 30.3141C63.8522 30.1026 63.9509 29.8531 64.0852 29.5651C64.2183 29.277 64.3351 29.0607 64.4316 28.9138C64.5291 28.7849 64.5785 28.7113 64.5785 28.6954C64.5785 28.6706 64.6487 28.5858 64.7906 28.4397C64.9334 28.2936 65.056 28.1793 65.1623 28.0987C65.2358 28.0344 65.347 27.9656 65.4969 27.8912C65.6473 27.8183 65.7711 27.7742 65.8678 27.7582Z" fill="white"/>
<path d="M70.4193 25.0323C70.5735 24.9676 70.7079 25 70.8213 25.1289C70.8611 25.1784 70.8863 25.2632 70.8938 25.3846C70.9023 25.5064 70.9065 25.9124 70.9065 26.6028C70.9065 27.5346 70.8821 28.3181 70.833 28.9514C70.7847 29.5598 70.7603 29.9407 70.7603 30.0952V30.2652L70.8213 30.107C70.9191 29.8878 71.0156 29.6816 71.1131 29.4867C71.4943 28.7162 71.8681 28.2249 72.2334 28.0141C72.3552 27.941 72.4946 27.9024 72.6533 27.8982C72.8107 27.8936 72.9431 27.9251 73.0488 27.9894C73.2916 28.1443 73.4436 28.4474 73.5045 28.9023C73.5654 29.3565 73.5675 30.1846 73.5107 31.3851C73.4541 32.5449 73.4667 33.3243 73.5477 33.7225C73.5876 33.8921 73.6086 34.0223 73.6086 34.1113C73.6086 34.2737 73.5255 34.3737 73.3587 34.4102C73.1929 34.4455 73.069 34.3917 72.988 34.2456C72.9389 34.1642 72.8948 34.0265 72.8536 33.832C72.7562 33.402 72.752 32.3506 72.841 30.6802C72.9061 29.2999 72.841 28.6108 72.647 28.6108C72.5987 28.6108 72.5084 28.675 72.3791 28.8052C72.2489 28.9342 72.1439 29.0644 72.0621 29.1944C71.8437 29.5426 71.6266 29.9931 71.4112 30.5458C71.1962 31.0971 71.0156 31.6573 70.8695 32.225C70.7721 32.5987 70.71 32.8998 70.6818 33.132C70.6524 33.3634 70.6385 33.6611 70.6385 34.0265C70.6385 34.4812 70.6188 34.7402 70.5777 34.805L70.4559 34.9338L70.2732 34.9636C70.1758 34.9636 70.1053 34.9393 70.0604 34.8906C70.0162 34.8424 69.973 34.7563 69.9323 34.6349C69.9008 34.5294 69.8818 34.3531 69.8777 34.1062C69.8735 33.8589 69.8882 33.633 69.9205 33.4297C69.9448 33.2437 69.9688 32.6634 69.9932 31.6896C70.0255 30.6672 70.0624 29.8554 70.1032 29.2558C70.1598 28.615 70.1968 27.7832 70.2124 26.7607C70.2292 25.7533 70.2577 25.2108 70.2976 25.1289L70.4193 25.0323Z" fill="white"/>
<path d="M77.9533 28.2207C77.7665 28.1401 77.5817 28.1271 77.4004 28.1837C77.2177 28.2408 77.0568 28.3593 76.9195 28.5364C76.6109 28.9589 76.3715 29.5447 76.2015 30.2963C76.0302 31.0467 75.9818 31.7261 76.0545 32.3346C76.1113 32.7398 76.2371 33.0568 76.4325 33.2837C76.6265 33.5117 76.8742 33.6245 77.1744 33.6245C77.4012 33.6245 77.6103 33.5192 77.8013 33.3084C77.9925 33.0976 78.1487 32.7965 78.2705 32.4077C78.4564 31.8067 78.5362 31.1047 78.5077 30.3018C78.4783 29.4986 78.3557 28.9266 78.1361 28.586L78.0995 28.3916L78.0815 28.3001L77.9533 28.2207ZM77.4788 27.4539C77.6489 27.4292 77.8581 27.4594 78.1058 27.5455C78.3536 27.6304 78.5383 27.7378 78.6601 27.868C78.7408 27.957 78.8091 28.0692 78.8666 28.2022C78.9234 28.3366 78.9519 28.4558 78.9519 28.5613C78.9519 28.6838 78.9717 28.801 79.0128 28.914C79.1102 29.1902 79.1724 29.6244 79.2005 30.2165C79.2291 30.8091 79.2068 31.3121 79.1346 31.7261C78.9801 32.6924 78.6882 33.3974 78.2578 33.8437C77.8203 34.2897 77.3004 34.4241 76.6999 34.2456C76.3023 34.1402 75.9818 33.8941 75.7384 33.5095C75.4948 33.1236 75.3575 32.6504 75.3247 32.0906C75.2923 31.5065 75.3365 30.9434 75.4582 30.3996C75.58 29.8394 75.7753 29.2516 76.0428 28.6344C76.0827 28.5364 76.154 28.4139 76.2561 28.2635C76.3569 28.1132 76.4438 27.9982 76.5173 27.9163C76.7684 27.6647 77.0896 27.511 77.4788 27.4539Z" fill="white"/>
<path d="M84.7466 27.4293L84.9411 27.3562L85.172 27.4242L85.3304 27.5758C85.3714 27.6564 85.3934 27.9474 85.3975 28.4463C85.4017 28.9451 85.387 29.4255 85.3546 29.8879C85.3064 30.4564 85.282 31.138 85.282 31.9336L85.2694 33.1871L85.3799 33.6007C85.4437 33.8362 85.4743 34.0038 85.471 34.1063C85.4668 34.207 85.4282 34.2823 85.3546 34.331C85.2497 34.3964 85.1456 34.4103 85.0447 34.3737C84.9431 34.3372 84.8642 34.2532 84.8075 34.1243C84.6689 33.7825 84.5925 33.1946 84.5757 32.3594L84.5514 31.397L84.4057 31.7876C84.3813 31.8442 84.312 32.0185 84.1986 32.3108C84.1748 32.4002 84.0928 32.5744 83.9551 32.8331C83.8178 33.0934 83.7157 33.2761 83.6507 33.3815C83.5785 33.4869 83.4701 33.6171 83.3286 33.7708C83.1866 33.9253 83.0712 34.0353 82.9822 34.0995C82.7218 34.2781 82.4581 34.3351 82.1907 34.2696C81.7526 34.1801 81.4356 33.8321 81.2416 33.2236C81.1514 32.9474 81.0913 32.5035 81.0589 31.8904C81.0263 31.2777 81.0305 30.6919 81.0703 30.1318C81.103 29.7182 81.1228 29.1903 81.1312 28.5495C81.1479 28.0948 81.1598 27.8206 81.1682 27.7269L81.2416 27.5153C81.3054 27.4414 81.3894 27.4057 81.4902 27.4057C81.5922 27.4057 81.675 27.4456 81.74 27.5271L81.8379 27.6366L81.8253 28.6462C81.8094 29.402 81.7841 30.0062 81.7526 30.4597C81.7119 31.2067 81.7296 31.8656 81.8072 32.4375C81.8841 33.0095 81.9995 33.3685 82.1537 33.515C82.3565 33.686 82.624 33.5688 82.9569 33.1623C83.1522 32.9192 83.3693 32.5055 83.6087 31.9206C83.8481 31.3369 84.0601 30.6961 84.2469 29.9974C84.4338 29.2911 84.5471 28.8191 84.5883 28.5798C84.629 28.3409 84.6366 28.1402 84.6123 27.9776C84.5883 27.8227 84.5841 27.7102 84.6009 27.6366L84.7466 27.4293Z" fill="white"/>
<path d="M89.3463 27.6362C89.7842 27.4901 90.2344 27.4947 90.6975 27.6485C91.3304 27.8676 91.7355 28.2728 91.9141 28.8653C91.9791 29.0845 91.9707 29.2424 91.8901 29.3403C91.7767 29.4863 91.6381 29.5145 91.4765 29.4251C91.403 29.3843 91.3304 29.2672 91.2569 29.0728C91.1352 28.7477 90.9244 28.5084 90.6241 28.3547L90.3805 28.2686C90.3155 28.2611 90.1946 28.2569 90.016 28.2569C89.7556 28.2569 89.5533 28.2934 89.4071 28.3664C89.172 28.4803 89.0011 28.634 88.8961 28.8284C88.7899 29.0232 88.7617 29.2306 88.8108 29.4498C88.8352 29.5628 88.8793 29.6564 88.9445 29.7295C89.0747 29.8681 89.3547 29.9811 89.7842 30.0701C90.1411 30.1432 90.4255 30.2292 90.6367 30.3262C90.8475 30.424 91.0461 30.5655 91.233 30.7516C91.6306 31.1497 91.8293 31.6569 91.8293 32.2729C91.8293 32.7038 91.7313 33.1047 91.5374 33.4789C91.4555 33.6326 91.3954 33.7401 91.3547 33.8001C91.3136 33.8614 91.2246 33.9614 91.0868 34.0991C90.7131 34.4968 90.2995 34.6786 89.8452 34.6462C89.2371 34.598 88.7176 34.2776 88.2872 33.6855C88.1823 33.523 88.1297 33.4314 88.1297 33.4113C88.1297 33.3908 88.1004 33.3285 88.0437 33.2232C87.9543 33.0283 87.9059 32.789 87.8975 32.5051C87.8892 32.2213 87.9303 31.9857 88.0193 31.7988C88.0437 31.7506 88.0887 31.6481 88.1537 31.4944L88.3112 31.2634L88.5064 31.1421C88.726 31.0849 88.8718 31.129 88.9445 31.2752C89.0251 31.4213 89.0053 31.5633 88.8835 31.701C88.729 31.8803 88.6324 32.0945 88.5917 32.346C88.5833 32.4513 88.598 32.5963 88.6346 32.778C88.6702 32.9608 88.7176 33.0846 88.7744 33.1501L88.8478 33.2714C88.8478 33.3362 88.9507 33.4499 89.1573 33.612C89.3644 33.7745 89.5289 33.8757 89.6507 33.9164C89.8452 33.9735 90.0098 33.9811 90.1433 33.9413C90.2777 33.9005 90.4255 33.7951 90.5884 33.6241C90.7907 33.4218 90.9453 33.1577 91.0502 32.8326C91.1637 32.4934 91.1784 32.1621 91.0931 31.8416C91.007 31.5204 90.8391 31.271 90.5884 31.0926C90.4171 30.9712 90.0602 30.8452 89.5164 30.715C89.0221 30.5937 88.6681 30.4282 88.4581 30.2161C88.3196 30.0701 88.2264 29.9328 88.1781 29.8026C88.1297 29.6724 88.1046 29.4905 88.1046 29.2554C88.1046 29.0682 88.1109 28.9426 88.1235 28.8779C88.1348 28.8124 88.1697 28.7234 88.2264 28.6105C88.4456 28.1397 88.8185 27.8147 89.3463 27.6362Z" fill="white"/>
<path d="M96.3331 28.5128C96.3003 28.4721 96.2269 28.4514 96.1135 28.4514C95.8859 28.4514 95.6465 28.59 95.3954 28.8655C95.2002 29.0683 95.0083 29.3631 94.8173 29.7477C94.627 30.1336 94.4905 30.4842 94.4098 30.8005C94.3688 30.9637 94.3561 31.0529 94.373 31.0692C94.3889 31.0851 94.4884 31.0646 94.6711 31.0079C94.8537 30.9507 94.9977 30.8937 95.1036 30.837C95.2085 30.7807 95.3324 30.6875 95.4744 30.5573C95.6159 30.4284 95.6872 30.3423 95.6872 30.3016L95.7242 30.2293C95.7398 30.2293 95.7956 30.1479 95.8879 29.9854C95.9812 29.8229 96.0568 29.6814 96.1135 29.5596C96.2269 29.3156 96.3045 29.0944 96.3445 28.8953C96.3855 28.6975 96.3813 28.5699 96.3331 28.5128ZM95.9182 27.7582C96.0568 27.7334 96.2227 27.7473 96.4179 27.8011C96.6124 27.8539 96.7538 27.9278 96.8441 28.0256C96.9084 28.0987 96.9617 28.1945 97.0016 28.3117C97.0428 28.43 97.0583 28.59 97.0512 28.792C97.0428 28.9952 97.0058 29.1854 96.9407 29.364C96.8924 29.5189 96.8118 29.7112 96.6972 29.9425C96.5838 30.1735 96.4906 30.3498 96.4179 30.4725L96.3507 30.5636L96.2835 30.6606L96.2478 30.7152C96.2155 30.7807 96.1093 30.8937 95.9308 31.0562C95.7368 31.2594 95.4941 31.4282 95.2065 31.5613C94.9188 31.6957 94.6534 31.7625 94.4098 31.7625H94.2512L94.2272 31.9451C94.2029 32.0505 94.2029 32.2491 94.2272 32.5405C94.2671 32.963 94.3688 33.2738 94.5316 33.4727C94.6933 33.6714 94.9285 33.7822 95.2371 33.8071C95.8784 33.8566 96.5397 33.3652 97.2212 32.3343C97.4081 32.0589 97.5277 31.8721 97.5803 31.7742C97.6327 31.6772 97.6957 31.5357 97.7691 31.3485C97.8259 31.1948 97.8805 31.0906 97.933 31.0377C97.9854 30.9852 98.0652 30.9591 98.1702 30.9591C98.2676 30.9591 98.3487 30.9936 98.4138 31.0624C98.4788 31.1313 98.5028 31.2153 98.4872 31.3119C98.4461 31.6365 98.2269 32.0904 97.8301 32.6749C97.6189 32.9835 97.5055 33.1456 97.4887 33.1621L97.4404 33.2469C97.4404 33.2716 97.3261 33.3951 97.0994 33.6176C96.8727 33.8415 96.7056 33.9939 96.6005 34.0745C96.3079 34.2853 95.9791 34.4239 95.615 34.4885C95.4198 34.5292 95.2211 34.5292 95.0188 34.4885C94.564 34.3915 94.2188 34.1963 93.9837 33.9049C93.9186 33.8318 93.8472 33.7058 93.7703 33.5274C93.6939 33.3489 93.6351 33.1868 93.594 33.0407C93.5134 32.7072 93.4945 32.2882 93.5394 31.7805C93.5835 31.2732 93.6835 30.7853 93.8375 30.3141C93.9027 30.1026 94.0014 29.8531 94.1357 29.5651C94.2692 29.277 94.3855 29.0607 94.4821 28.9138C94.5799 28.7849 94.6291 28.7113 94.6291 28.6954C94.6291 28.6706 94.6997 28.5858 94.8411 28.4397C94.9839 28.2936 95.107 28.1793 95.2127 28.0987C95.2863 28.0344 95.3975 27.9656 95.5478 27.8912C95.6978 27.8183 95.8216 27.7742 95.9182 27.7582Z" fill="white"/>
</svg>
